PathFileType   4   (X/Y/Z)																																																																																																																							
DataRate	CameraRate	NumFrames	NumMarkers	Units	OrigDataRate	OrigDataStartFrame	OrigNumFrames																																																																																																																
120	120	4	37	mm	120	32	125																																																																																																																
Frame#	Time	Sternum	R.Acromium	L.Acromium	Top.Head	R.ASIS	L.ASIS	V.Sacral	R.Thigh.Upper	R.Thigh.Front	R.Thigh.Rear	R.Knee.Lat	R.Knee.Med	R.Shank.Upper	R.Shank.Front	R.Shank.Rear	R.Ankle.Lat	R.Ankle.Med	R.Heel	R.Midfoot.Sup	R.Midfoot.Lat	R.Toe.Lat	R.Toe.Med	R.Toe.Tip	L.Thigh.Upper	L.Thigh.Front	L.Thigh.Rear	L.Knee.Lat	L.Knee.Med	L.Shank.Upper	L.Shank.Front	L.Shank.Rear	L.Ankle.Lat	L.Ankle.Med	L.Heel	L.Midfoot.Sup	L.Midfoot.Lat	L.Toe.Lat	L.Toe.Med	L.Toe.Tip																																																																															
 	 	X1	Y1	Z1	X2	Y2	Z2	X3	Y3	Z3	X4	Y4	Z4	X5	Y5	Z5	X6	Y6	Z6	X7	Y7	Z7	X8	Y8	Z8	X9	Y9	Z9	X10	Y10	Z10	X11	Y11	Z11	X12	Y12	Z12	X13	Y13	Z13	X14	Y14	Z14	X15	Y15	Z15	X16	Y16	Z16	X17	Y17	Z17	X18	Y18	Z18	X19	Y19	Z19	X20	Y20	Z20	X21	Y21	Z21	X22	Y22	Z22	X23	Y23	Z23	X24	Y24	Z24	X25	Y25	Z25	X26	Y26	Z26	X27	Y27	Z27	X28	Y28	Z28	X29	Y29	Z29	X30	Y30	Z30	X31	Y31	Z31	X32	Y32	Z32	X33	Y33	Z33	X34	Y34	Z34	X35	Y35	Z35	X36	Y36	Z36	X37	Y37	Z37	X38	Y38	Z38	X39	Y39	Z39	
																																																																																																																							
	32	0.40833	1620.576208	-0.001002095	1357.859854	1544.660149	-161.9453511	1423.261773	1547.398988	165.1979949	1423.012649	1646.578502	-10.08809499	1648.87904	1647.408087	-117.7896216	995.9118534	1653.58366	119.399185	988.9219597	1471.094356	-5.611229398	986.6359789	1719.033116	-173.4115572	697.1552675	1804.42826	-67.95180237	660.1134058	1761.451379	-162.9734513	569.7216875	1758.782339	-142.5943975	465.4215375	1764.334278	-8.355853302	447.702091	1708.763699	-154.6508593	433.0813188	1781.407404	-93.81404015	375.7677172	1704.34846	-165.0122006	336.3385867	1634.169226	-136.9768135	25.23357064	1646.32971	-37.22329306	39.04534776	1561.284268	-79.10633289	3.179168244	1713.647734	-41.71858376	4.185400367	1706.573558	-155.3841374	-16.28126708	1799.343219	-165.0174344	-48.49434316	1802.810135	-50.15543807	-34.86200282	1867.223581	-83.79364801	-39.04162794	1590.683376	178.8034865	665.5147844	1673.261897	95.03600439	612.5260423	1569.973281	161.7547942	546.4689955	1528.952485	144.5366564	405.5238591	1530.368504	15.87918741	406.1973627	1516.615699	162.4477689	381.5956079	1551.955099	100.5194763	316.0126574	1486.878214	174.5177999	339.0472213	1425.551267	136.4325857	-6.724086386	1435.898057	34.31683281	17.58987991	1342.035389	76.11439987	-23.70526143	1524.616765	48.15109198	-24.64883349	1505.145632	152.6198727	-24.25400945	1571.640805	163.716336	-50.22783459	1589.689009	55.50675189	-50.61524333	1641.8102	82.30973808	-50.7928099
	33	0.41667	1629.631589	-0.001002095	1356.659383	1553.715635	-161.9453511	1422.061424	1556.454473	165.1979949	1421.812296	1655.634349	-10.08809499	1647.678527	1656.493366	-117.7896216	994.8175416	1662.675399	119.399185	987.8333618	1480.188288	-5.611229398	985.3786262	1729.5067	-173.4115572	696.9621224	1815.140364	-67.95180237	660.4750603	1772.750825	-162.9734513	569.8064222	1770.758512	-142.5943975	465.4911513	1776.425293	-8.355853302	447.8080972	1722.596636	-154.6508593	431.7332322	1797.510418	-93.81404015	377.4204132	1722.118212	-165.0122006	334.8909808	1664.645261	-136.9768135	21.18998356	1676.234159	-37.22329306	35.48473674	1592.690128	-79.10633289	-3.724931969	1744.894467	-41.71858376	3.309089273	1738.635637	-155.3841374	-17.42145555	1832.607229	-165.0174344	-45.93868175	1835.532038	-50.15543807	-32.17984091	1900.060419	-83.79364801	-33.80754122	1597.167121	178.8034865	664.1211134	1679.125714	95.03600439	610.1784781	1575.078144	161.7547942	545.3234494	1532.42592	144.5366564	404.8634018	1533.849652	15.87918741	405.5204422	1519.970573	162.4477689	381.06037	1554.69938	100.5194763	315.1520507	1489.839224	174.5177999	338.7899904	1425.303743	136.4325857	-6.396862309	1435.87589	34.31683281	17.81996478	1341.745873	76.11439987	-23.16188588	1524.324732	48.15109198	-24.50707977	1504.854514	152.6198727	-24.06942605	1571.292392	163.716336	-50.18945773	1589.3397	55.50675189	-50.61656616	1641.460375	82.30973808	-50.90878324
	34	0.425	1638.721812	-0.001002095	1355.382294	1562.800563	-161.9453511	1420.778187	1565.539422	165.1979949	1420.529281	1664.701008	-10.08809499	1646.403542	1665.641904	-117.7896216	993.6441207	1671.830682	119.399185	986.6659158	1489.346027	-5.611229398	984.0349021	1739.905884	-173.4115572	696.5915708	1825.749933	-67.95180237	660.6022759	1783.887491	-162.9734513	569.6890704	1782.500821	-142.5943975	465.3639909	1788.270167	-8.355853302	447.7141337	1736.259092	-154.6508593	430.277234	1813.314493	-93.81404015	379.0481212	1739.709623	-165.0122006	333.4952916	1695.009766	-136.9768135	17.72103895	1706.009235	-37.22329306	32.4741475	1624.073923	-79.10633289	-9.953301811	1775.891381	-41.71858376	2.973332605	1770.440557	-155.3841374	-17.98417116	1865.446609	-165.0174344	-42.83859369	1867.836069	-50.15543807	-28.97675058	1932.379058	-83.79364801	-28.10276297	1603.754477	178.8034865	662.6790496	1685.091254	95.03600439	607.8033032	1580.309306	161.7547942	544.1415792	1536.054672	144.5366564	404.1781394	1537.48582	15.87918741	404.8188662	1523.458089	162.4477689	380.501817	1557.55717	100.5194763	314.2655028	1492.925244	174.5177999	338.5205287	1425.102837	136.4325857	-6.035580966	1435.905307	34.31683281	18.07938676	1341.495627	76.11439987	-22.5435826	1524.070186	48.15109198	-24.38192776	1504.601222	152.6198727	-23.89168543	1570.968306	163.716336	-50.19107442	1589.014394	55.50675189	-50.66692813	1641.13409	82.30973808	-51.09992514
	35	0.43333	1647.848824	-0.001002095	1354.037258	1571.917129	-161.9453511	1419.421023	1574.656028	165.1979949	1419.172554	1673.781531	-10.08809499	1645.062653	1674.854612	-117.7896216	992.401395	1681.050463	119.399185	985.4294697	1498.56857	-5.611229398	982.6133997	1750.235495	-173.4115572	696.0516416	1836.263071	-67.95180237	660.5032758	1794.867645	-162.9734513	569.3764758	1794.016272	-142.5943975	465.0456548	1799.876102	-8.355853302	447.4256317	1749.742555	-154.6508593	428.7239838	1828.799633	-93.81404015	380.6413952	1757.090075	-165.0122006	332.1596814	1725.150525	-136.9768135	14.84072364	1735.54659	-37.22329306	30.02506977	1655.310881	-79.10633289	-15.48195016	1806.531063	-41.71858376	3.175350272	1801.876496	-155.3841374	-17.97325392	1897.754316	-165.0174344	-39.21792116	1899.61798	-50.15543807	-25.27564835	1964.081779	-83.79364801	-21.9620469	1610.450706	178.8034865	661.1967566	1691.165099	95.03600439	605.4096111	1585.673717	161.7547942	542.9304946	1539.847583	144.5366564	403.4736821	1541.285847	15.87918741	404.0982709	1527.08465	162.4477689	379.926477	1560.532987	100.5194763	313.3591778	1496.141861	174.5177999	338.2464217	1424.946115	136.4325857	-5.628493659	1435.984389	34.31683281	18.37945357	1341.281611	76.11439987	-21.83364989	1523.849201	48.15109198	-24.26768268	1504.38194	152.6198727	-23.71392036	1570.662861	163.716336	-50.22970938	1588.707301	55.50675189	-50.76444066	1640.825306	82.30973808	-51.36748954
